<?xml version="1.0" encoding="UTF-8" standalone="no"?><svg xmlns="http://www.w3.org/2000/svg" xmlns:xlink="http://www.w3.org/1999/xlink" width="1500" zoomAndPan="magnify" viewBox="0 0 1125 374.999991" height="500" preserveAspectRatio="xMidYMid meet" version="1.0"><defs><g/></defs><g fill="#333333" fill-opacity="1"><g transform="translate(37.537504, 186.090063)"><g><path d="M 28.546875 21.640625 C 9.390625 20.023438 -0.1875 10.195312 -0.1875 -7.84375 C -0.1875 -18.539062 3.171875 -29.859375 9.890625 -41.796875 C 13.867188 -49.015625 18.875 -56.039062 24.90625 -62.875 C 30.9375 -69.71875 37.53125 -75.90625 44.6875 -81.4375 C 51.84375 -86.976562 59.179688 -91.363281 66.703125 -94.59375 C 74.234375 -97.832031 81.484375 -99.453125 88.453125 -99.453125 C 100.765625 -99.453125 106.921875 -94.910156 106.921875 -85.828125 C 106.921875 -79.734375 105.054688 -72.957031 101.328125 -65.5 C 97.585938 -58.03125 93.789062 -53.300781 89.9375 -51.3125 C 89.5625 -51.1875 89.125 -51.125 88.625 -51.125 C 88.257812 -51.125 88.078125 -51.25 88.078125 -51.5 L 94.234375 -61.578125 C 98.460938 -68.546875 100.578125 -74.640625 100.578125 -79.859375 C 100.578125 -83.585938 99.582031 -87.128906 97.59375 -90.484375 C 95.601562 -93.847656 92.054688 -95.53125 86.953125 -95.53125 C 80.734375 -95.53125 74.359375 -93.789062 67.828125 -90.3125 C 61.296875 -86.832031 54.984375 -82.226562 48.890625 -76.5 C 42.796875 -70.78125 37.257812 -64.46875 32.28125 -57.5625 C 27.300781 -50.65625 23.320312 -43.84375 20.34375 -37.125 C 14 -22.820312 10.828125 -11.253906 10.828125 -2.421875 C 10.828125 10.890625 17.601562 17.546875 31.15625 17.546875 C 44.09375 17.546875 61.632812 9.207031 83.78125 -7.46875 C 88.882812 -11.320312 95.445312 -16.726562 103.46875 -23.6875 C 111.488281 -30.65625 120.910156 -39.117188 131.734375 -49.078125 C 130.242188 -48.953125 128.378906 -48.796875 126.140625 -48.609375 C 123.898438 -48.421875 121.285156 -48.078125 118.296875 -47.578125 C 117.054688 -47.328125 115.875 -47.109375 114.75 -46.921875 C 113.632812 -46.742188 112.578125 -46.65625 111.578125 -46.65625 C 109.085938 -46.894531 108.03125 -47.515625 108.40625 -48.515625 C 108.90625 -53.117188 111.269531 -55.421875 115.5 -55.421875 C 119.351562 -54.921875 122.988281 -54.546875 126.40625 -54.296875 C 129.832031 -54.046875 133.101562 -53.921875 136.21875 -53.921875 C 141.0625 -58.398438 147.492188 -64.648438 155.515625 -72.671875 C 163.546875 -80.703125 173.097656 -90.5625 184.171875 -102.25 C 198.472656 -117.300781 207.179688 -124.828125 210.296875 -124.828125 C 211.660156 -124.828125 212.34375 -123.582031 212.34375 -121.09375 C 212.34375 -120.101562 212.21875 -118.859375 211.96875 -117.359375 C 211.71875 -115.867188 211.34375 -114.128906 210.84375 -112.140625 C 209.601562 -107.410156 208.300781 -104.550781 206.9375 -103.5625 C 203.070312 -100.820312 199.863281 -97.304688 197.3125 -93.015625 C 194.769531 -88.722656 192.191406 -83.96875 189.578125 -78.75 C 186.960938 -73.394531 184.566406 -68.632812 182.390625 -64.46875 C 180.210938 -60.300781 178.253906 -56.597656 176.515625 -53.359375 L 194.625 -53.734375 C 199.09375 -53.734375 201.328125 -53.425781 201.328125 -52.8125 C 201.328125 -52.6875 201.207031 -52.5 200.96875 -52.25 C 198.851562 -50.875 189.894531 -49.628906 174.09375 -48.515625 C 162.519531 -25.992188 156.734375 -10.566406 156.734375 -2.234375 C 156.734375 3.484375 158.539062 6.34375 162.15625 6.34375 C 163.519531 6.34375 165.257812 5.472656 167.375 3.734375 C 169.363281 2.117188 170.609375 1.3125 171.109375 1.3125 C 171.109375 1.0625 171.171875 1 171.296875 1.125 C 171.421875 1.25 171.359375 1.3125 171.109375 1.3125 C 170.484375 3.550781 168.644531 5.570312 165.59375 7.375 C 162.550781 9.175781 159.351562 10.078125 156 10.078125 C 152.882812 10.078125 150.828125 9.082031 149.828125 7.09375 C 148.835938 5.101562 148.34375 2.363281 148.34375 -1.125 C 148.34375 -13.6875 153.128906 -29.671875 162.703125 -49.078125 L 140.3125 -48.515625 C 123.644531 -32.222656 106.914062 -17.914062 90.125 -5.59375 C 63.375 13.8125 42.847656 22.890625 28.546875 21.640625 Z M 164.390625 -53.921875 C 165.878906 -56.785156 168.863281 -61.976562 173.34375 -69.5 C 177.820312 -77.03125 183.851562 -86.828125 191.4375 -98.890625 L 143.671875 -54.109375 Z M 164.390625 -53.921875 "/></g></g></g><g fill="#333333" fill-opacity="1"><g transform="translate(227.855121, 186.090063)"><g><path d="M 14.1875 0.375 C 10.570312 0.375 7.207031 -0.523438 4.09375 -2.328125 C 0.988281 -4.128906 -0.5625 -7.144531 -0.5625 -11.375 C -0.5625 -17.226562 1.519531 -24.195312 5.6875 -32.28125 C 9.851562 -40.363281 14.613281 -48.757812 19.96875 -57.46875 C 34.519531 -81.101562 44.84375 -92.921875 50.9375 -92.921875 C 52.1875 -92.921875 53.460938 -92.453125 54.765625 -91.515625 C 56.066406 -90.585938 56.78125 -89.566406 56.90625 -88.453125 L 43.84375 -70.90625 C 38.75 -64.0625 34.148438 -57.75 30.046875 -51.96875 C 25.941406 -46.1875 22.394531 -40.992188 19.40625 -36.390625 C 17.914062 -34.023438 16.234375 -31.347656 14.359375 -28.359375 C 12.492188 -25.378906 10.847656 -22.300781 9.421875 -19.125 C 7.992188 -15.957031 7.28125 -12.753906 7.28125 -9.515625 C 7.28125 -8.023438 7.710938 -6.6875 8.578125 -5.5 C 9.453125 -4.320312 11.007812 -3.734375 13.25 -3.734375 C 17.226562 -3.734375 22.453125 -5.878906 28.921875 -10.171875 C 35.390625 -14.460938 41.796875 -20.398438 48.140625 -27.984375 C 48.765625 -28.734375 49.445312 -29.414062 50.1875 -30.03125 C 50.9375 -30.65625 51.5625 -30.96875 52.0625 -30.96875 C 52.6875 -30.96875 53 -30.597656 53 -29.859375 C 53 -29.484375 52.59375 -28.765625 51.78125 -27.703125 C 50.96875 -26.648438 50.316406 -25.8125 49.828125 -25.1875 L 45.34375 -20.15625 C 42.851562 -17.414062 39.894531 -14.425781 36.46875 -11.1875 C 33.050781 -7.957031 29.445312 -5.222656 25.65625 -2.984375 C 21.863281 -0.742188 18.039062 0.375 14.1875 0.375 Z M 14.1875 0.375 "/></g></g></g><g fill="#333333" fill-opacity="1"><g transform="translate(273.195488, 186.090063)"><g><path d="M 41.234375 -64.1875 C 39.117188 -64.1875 37.285156 -64.867188 35.734375 -66.234375 C 34.179688 -67.609375 33.40625 -69.164062 33.40625 -70.90625 C 33.40625 -74.382812 35.765625 -76.125 40.484375 -76.125 C 42.234375 -76.125 43.976562 -75.53125 45.71875 -74.34375 C 47.457031 -73.164062 48.328125 -71.707031 48.328125 -69.96875 C 48.328125 -68.476562 47.515625 -67.140625 45.890625 -65.953125 C 44.273438 -64.773438 42.722656 -64.1875 41.234375 -64.1875 Z M 6.71875 2.046875 C 3.976562 2.046875 1.707031 1.144531 -0.09375 -0.65625 C -1.894531 -2.457031 -2.796875 -5.660156 -2.796875 -10.265625 C -2.796875 -12.878906 -2.203125 -15.894531 -1.015625 -19.3125 C 0.160156 -22.726562 1.648438 -26.175781 3.453125 -29.65625 C 5.253906 -33.144531 7.023438 -36.257812 8.765625 -39 C 15.734375 -50.320312 21.457031 -56.046875 25.9375 -56.171875 C 27.050781 -56.171875 28.414062 -55.703125 30.03125 -54.765625 C 31.65625 -53.828125 32.46875 -52.800781 32.46875 -51.6875 C 32.46875 -51.6875 27.738281 -45.59375 18.28125 -33.40625 C 8.957031 -21.332031 4.296875 -12.75 4.296875 -7.65625 C 4.296875 -3.664062 5.847656 -1.671875 8.953125 -1.671875 C 10.941406 -1.671875 13.519531 -2.507812 16.6875 -4.1875 C 19.863281 -5.875 23.191406 -8.019531 26.671875 -10.625 C 30.160156 -13.238281 33.488281 -16.039062 36.65625 -19.03125 C 39.832031 -22.019531 42.414062 -24.757812 44.40625 -27.25 C 45.65625 -28.863281 46.742188 -29.976562 47.671875 -30.59375 C 48.609375 -31.21875 49.203125 -31.53125 49.453125 -31.53125 C 49.941406 -31.53125 50.1875 -31.160156 50.1875 -30.421875 C 50.1875 -29.796875 49.472656 -28.550781 48.046875 -26.6875 C 46.617188 -24.820312 44.660156 -22.644531 42.171875 -20.15625 C 39.179688 -17.164062 35.882812 -13.925781 32.28125 -10.4375 C 28.675781 -6.957031 24.757812 -4.003906 20.53125 -1.578125 C 16.300781 0.835938 11.695312 2.046875 6.71875 2.046875 Z M 6.71875 2.046875 "/></g></g></g><g fill="#333333" fill-opacity="1"><g transform="translate(315.363897, 186.090063)"><g><path d="M 14.1875 2.421875 C 10.195312 2.421875 6.582031 1.148438 3.34375 -1.390625 C 0.113281 -3.941406 -1.5 -7.332031 -1.5 -11.5625 C -1.5 -20.394531 3.910156 -30.472656 14.734375 -41.796875 C 25.804688 -53.242188 35.695312 -58.96875 44.40625 -58.96875 C 47.394531 -58.96875 49.757812 -58.1875 51.5 -56.625 C 53.238281 -55.070312 54.109375 -53.175781 54.109375 -50.9375 C 54.109375 -47.832031 53.363281 -44.972656 51.875 -42.359375 C 50.132812 -39.117188 47.644531 -37.5 44.40625 -37.5 C 41.175781 -37.5 39.5625 -38.492188 39.5625 -40.484375 C 39.5625 -41.859375 40.367188 -43.914062 41.984375 -46.65625 C 43.722656 -49.507812 44.59375 -51 44.59375 -51.125 C 44.59375 -51.375 44.40625 -51.5 44.03125 -51.5 C 40.550781 -51.125 35.703125 -48.570312 29.484375 -43.84375 C 26.742188 -41.726562 24.347656 -39.738281 22.296875 -37.875 C 20.242188 -36.007812 18.597656 -34.207031 17.359375 -32.46875 L 10.078125 -21.828125 C 9.328125 -20.710938 8.546875 -18.785156 7.734375 -16.046875 C 6.929688 -13.304688 6.53125 -11.253906 6.53125 -9.890625 C 6.53125 -7.398438 7.367188 -5.347656 9.046875 -3.734375 C 10.722656 -2.117188 12.867188 -1.3125 15.484375 -1.3125 C 21.703125 -1.3125 29.914062 -5.351562 40.125 -13.4375 C 48.332031 -19.90625 54.921875 -26.4375 59.890625 -33.03125 C 60.515625 -33.769531 61.265625 -34.140625 62.140625 -34.140625 C 63.003906 -34.140625 63.4375 -33.894531 63.4375 -33.40625 C 63.4375 -33.03125 63.128906 -32.40625 62.515625 -31.53125 C 55.671875 -22.445312 47.644531 -14.613281 38.4375 -8.03125 C 28.613281 -1.0625 20.53125 2.421875 14.1875 2.421875 Z M 14.1875 2.421875 "/></g></g></g><g fill="#333333" fill-opacity="1"><g transform="translate(368.167688, 186.090063)"><g><path d="M 9.515625 2.421875 C 5.535156 2.421875 1.929688 1.148438 -1.296875 -1.390625 C -4.535156 -3.941406 -6.15625 -7.332031 -6.15625 -11.5625 C -6.15625 -20.394531 -0.742188 -30.472656 10.078125 -41.796875 C 21.148438 -53.242188 31.039062 -58.96875 39.75 -58.96875 C 42.601562 -58.96875 44.929688 -58.1875 46.734375 -56.625 C 48.546875 -55.070312 49.453125 -53.175781 49.453125 -50.9375 C 49.453125 -43.96875 43.914062 -37.128906 32.84375 -30.421875 C 23.007812 -24.441406 14.738281 -21.453125 8.03125 -21.453125 C 7.03125 -21.453125 6.15625 -21.578125 5.40625 -21.828125 C 3.539062 -18.472656 2.609375 -14.929688 2.609375 -11.203125 C 2.609375 -4.734375 5.65625 -1.5 11.75 -1.5 C 17.96875 -1.5 25.992188 -5.664062 35.828125 -14 C 43.410156 -20.09375 49.878906 -26.5625 55.234375 -33.40625 C 56.347656 -34.894531 57.34375 -35.640625 58.21875 -35.640625 C 58.96875 -35.640625 59.34375 -35.265625 59.34375 -34.515625 C 59.34375 -33.773438 58.84375 -32.71875 57.84375 -31.34375 C 54.363281 -26.738281 50.628906 -22.507812 46.640625 -18.65625 C 42.660156 -14.800781 38.375 -11.257812 33.78125 -8.03125 C 24.195312 -1.0625 16.109375 2.421875 9.515625 2.421875 Z M 10.640625 -25.5625 C 15.359375 -25.5625 21.515625 -27.925781 29.109375 -32.65625 C 31.597656 -34.394531 34.054688 -36.351562 36.484375 -38.53125 C 38.910156 -40.707031 40.898438 -42.914062 42.453125 -45.15625 C 44.003906 -47.394531 44.78125 -49.382812 44.78125 -51.125 C 44.78125 -52.738281 43.472656 -53.546875 40.859375 -53.546875 C 37.128906 -53.546875 31.90625 -50.75 25.1875 -45.15625 C 21.957031 -42.414062 18.847656 -39.425781 15.859375 -36.1875 C 12.867188 -32.957031 10.316406 -29.539062 8.203125 -25.9375 C 8.953125 -25.6875 9.765625 -25.5625 10.640625 -25.5625 Z M 10.640625 -25.5625 "/></g></g></g><g fill="#333333" fill-opacity="1"><g transform="translate(416.111701, 186.090063)"><g/></g></g><g fill="#333333" fill-opacity="1"><g transform="translate(453.05571, 186.090063)"><g/></g></g><g fill="#333333" fill-opacity="1"><g transform="translate(489.998411, 186.090063)"><g><path d="M 69.78125 25 C 63.0625 25 57.054688 23.691406 51.765625 21.078125 C 46.484375 18.472656 42.285156 14.804688 39.171875 10.078125 C 36.066406 5.347656 34.515625 -0.1875 34.515625 -6.53125 C 34.515625 -7.28125 34.515625 -7.992188 34.515625 -8.671875 C 34.515625 -9.359375 34.578125 -10.078125 34.703125 -10.828125 C 28.734375 -11.441406 23.289062 -12.679688 18.375 -14.546875 C 13.46875 -16.421875 9.582031 -19.003906 6.71875 -22.296875 C 3.851562 -25.597656 2.421875 -29.671875 2.421875 -34.515625 C 2.421875 -38.992188 3.789062 -43.253906 6.53125 -47.296875 C 9.269531 -51.335938 12.722656 -55.128906 16.890625 -58.671875 C 21.054688 -62.222656 25.441406 -65.304688 30.046875 -67.921875 C 38.628906 -73.140625 47.023438 -77.054688 55.234375 -79.671875 C 53.617188 -81.660156 52.34375 -83.992188 51.40625 -86.671875 C 50.46875 -89.347656 50 -91.929688 50 -94.421875 C 50 -98.898438 51.644531 -102.910156 54.9375 -106.453125 C 58.238281 -109.992188 62.503906 -113.007812 67.734375 -115.5 C 72.960938 -117.988281 78.5 -119.914062 84.34375 -121.28125 C 90.1875 -122.65625 95.597656 -123.34375 100.578125 -123.34375 C 113.765625 -123.34375 120.359375 -119.296875 120.359375 -111.203125 C 120.359375 -107.472656 118.925781 -104.238281 116.0625 -101.5 C 113.195312 -98.769531 110.023438 -97.40625 106.546875 -97.40625 C 103.179688 -97.40625 101.5 -98.273438 101.5 -100.015625 C 101.5 -101.253906 102.3125 -101.875 103.9375 -101.875 C 104.425781 -101.875 105.046875 -101.75 105.796875 -101.5 C 106.046875 -101.382812 106.484375 -101.328125 107.109375 -101.328125 C 108.722656 -101.328125 110.273438 -102.257812 111.765625 -104.125 C 113.753906 -106.488281 114.75 -108.726562 114.75 -110.84375 C 114.75 -114.195312 112.820312 -116.617188 108.96875 -118.109375 C 106.476562 -118.984375 103.304688 -119.421875 99.453125 -119.421875 C 94.472656 -119.421875 89.523438 -118.578125 84.609375 -116.890625 C 79.703125 -115.210938 75.226562 -112.910156 71.1875 -109.984375 C 67.144531 -107.066406 63.878906 -103.742188 61.390625 -100.015625 C 58.898438 -96.285156 57.65625 -92.304688 57.65625 -88.078125 C 57.65625 -85.085938 58.398438 -82.722656 59.890625 -80.984375 C 64.617188 -82.347656 68.785156 -83.03125 72.390625 -83.03125 C 79.609375 -83.03125 83.21875 -81.601562 83.21875 -78.75 C 83.21875 -77.125 82.160156 -75.71875 80.046875 -74.53125 C 77.929688 -73.351562 75.628906 -72.765625 73.140625 -72.765625 C 66.921875 -72.765625 61.632812 -74.382812 57.28125 -77.625 C 53.800781 -76.625 50.128906 -75.066406 46.265625 -72.953125 C 42.410156 -70.835938 38.367188 -68.226562 34.140625 -65.125 C 28.421875 -60.894531 23.445312 -56.195312 19.21875 -51.03125 C 14.988281 -45.875 12.875 -40.367188 12.875 -34.515625 C 12.875 -23.441406 20.398438 -17.285156 35.453125 -16.046875 C 36.816406 -24.878906 39.769531 -32.835938 44.3125 -39.921875 C 48.851562 -47.015625 54.859375 -52.863281 62.328125 -57.46875 C 66.554688 -60.082031 71.375 -62.164062 76.78125 -63.71875 C 82.195312 -65.269531 87.671875 -66.515625 93.203125 -67.453125 C 98.734375 -68.390625 103.800781 -69.226562 108.40625 -69.96875 C 114.5 -70.96875 119.410156 -72.085938 123.140625 -73.328125 C 126.878906 -74.578125 129.679688 -75.882812 131.546875 -77.25 C 132.910156 -78.25 133.9375 -79.367188 134.625 -80.609375 C 135.3125 -81.847656 135.65625 -82.96875 135.65625 -83.96875 C 135.65625 -84.71875 135.53125 -85.429688 135.28125 -86.109375 C 135.03125 -86.796875 135.34375 -87.140625 136.21875 -87.140625 C 137.082031 -87.140625 137.765625 -86.578125 138.265625 -85.453125 C 138.765625 -84.335938 139.015625 -83.28125 139.015625 -82.28125 C 139.015625 -79.800781 137.769531 -77.128906 135.28125 -74.265625 C 132.539062 -71.523438 129.242188 -69.46875 125.390625 -68.09375 C 121.535156 -66.726562 117.492188 -65.671875 113.265625 -64.921875 C 109.035156 -64.179688 104.867188 -63.316406 100.765625 -62.328125 C 103.128906 -60.085938 104.3125 -56.726562 104.3125 -52.25 C 104.3125 -43.039062 99.082031 -34.207031 88.625 -25.75 C 81.414062 -20.03125 73.734375 -16.082031 65.578125 -13.90625 C 57.429688 -11.726562 48.695312 -10.640625 39.375 -10.640625 C 39.25 -9.890625 39.15625 -9.109375 39.09375 -8.296875 C 39.03125 -7.492188 39 -6.71875 39 -5.96875 C 39 2.363281 41.828125 9.140625 47.484375 14.359375 C 53.148438 19.585938 60.582031 22.203125 69.78125 22.203125 C 72.894531 22.203125 75.570312 21.175781 77.8125 19.125 C 80.050781 17.070312 81.171875 14.738281 81.171875 12.125 C 81.171875 11.257812 80.984375 10.390625 80.609375 9.515625 C 80.484375 9.265625 80.421875 8.953125 80.421875 8.578125 C 80.421875 7.835938 80.921875 7.46875 81.921875 7.46875 C 83.285156 7.46875 83.96875 9.082031 83.96875 12.3125 C 83.96875 15.675781 82.535156 18.628906 79.671875 21.171875 C 76.816406 23.722656 73.519531 25 69.78125 25 Z M 72.21875 -75.75 C 75.320312 -75.75 77.125 -76.5 77.625 -78 C 77.75 -79.238281 75.945312 -79.859375 72.21875 -79.859375 C 69.226562 -79.859375 65.867188 -79.488281 62.140625 -78.75 C 65.242188 -76.75 68.601562 -75.75 72.21875 -75.75 Z M 39.9375 -15.859375 C 48.019531 -15.859375 56.320312 -17.164062 64.84375 -19.78125 C 73.363281 -22.394531 80.546875 -26.375 86.390625 -31.71875 C 94.222656 -38.8125 98.140625 -46.085938 98.140625 -53.546875 C 98.140625 -59.023438 95.78125 -61.765625 91.0625 -61.765625 C 89.6875 -61.765625 86.640625 -61.203125 81.921875 -60.078125 C 57.910156 -51.128906 43.914062 -36.390625 39.9375 -15.859375 Z M 39.9375 -15.859375 "/></g></g></g><g fill="#333333" fill-opacity="1"><g transform="translate(630.497582, 186.090063)"><g/></g></g><g fill="#333333" fill-opacity="1"><g transform="translate(667.441591, 186.090063)"><g><path d="M 119.046875 20.90625 C 114.066406 20.90625 109.804688 18.910156 106.265625 14.921875 C 102.722656 10.941406 99.644531 5.84375 97.03125 -0.375 C 94.414062 -6.59375 92.113281 -13 90.125 -19.59375 C 85.519531 -34.644531 83.59375 -43.601562 84.34375 -46.46875 C 77 -36.632812 70.648438 -28.453125 65.296875 -21.921875 C 59.953125 -15.390625 55.601562 -10.507812 52.25 -7.28125 C 37.570312 6.90625 22.707031 14 7.65625 14 C 3.175781 14 -0.523438 13.0625 -3.453125 11.1875 C -6.378906 9.320312 -7.84375 6.210938 -7.84375 1.859375 C -7.84375 -0.867188 -7.21875 -3.816406 -5.96875 -6.984375 C -4.726562 -10.160156 -3.171875 -13.179688 -1.296875 -16.046875 C 0.566406 -18.910156 2.429688 -21.273438 4.296875 -23.140625 C 8.398438 -27.242188 11.816406 -29.296875 14.546875 -29.296875 C 15.046875 -29.296875 15.296875 -29.171875 15.296875 -28.921875 C 15.296875 -28.296875 14.363281 -27.238281 12.5 -25.75 C 8.144531 -22.269531 4.535156 -18.257812 1.671875 -13.71875 C -1.179688 -9.175781 -2.609375 -5.039062 -2.609375 -1.3125 C -2.609375 5.65625 2.300781 8.953125 12.125 8.578125 C 28.175781 7.960938 50.441406 -11.441406 78.921875 -49.640625 C 80.546875 -51.753906 81.914062 -53.242188 83.03125 -54.109375 L 80.046875 -55.234375 C 78.429688 -54.609375 77.125 -54.296875 76.125 -54.296875 C 73.519531 -54.296875 72.21875 -55.351562 72.21875 -57.46875 C 72.21875 -60.332031 74.144531 -62.195312 78 -63.0625 C 80.363281 -63.6875 83.410156 -62.628906 87.140625 -59.890625 C 91.992188 -65.367188 96.6875 -70.59375 101.21875 -75.5625 C 105.757812 -80.539062 109.894531 -84.613281 113.625 -87.78125 C 117.363281 -90.957031 120.351562 -92.546875 122.59375 -92.546875 C 125.582031 -92.546875 127.078125 -91.179688 127.078125 -88.453125 C 127.078125 -87.328125 126.796875 -86.171875 126.234375 -84.984375 C 125.671875 -83.804688 125.015625 -83.21875 124.265625 -83.21875 C 123.523438 -83.09375 123.15625 -83.46875 123.15625 -84.34375 C 123.15625 -84.957031 123.523438 -85.703125 124.265625 -86.578125 L 124.265625 -87.328125 C 124.265625 -88.078125 124.019531 -88.632812 123.53125 -89 C 120.289062 -91.113281 110.335938 -80.601562 93.671875 -57.46875 C 95.035156 -57.34375 96.492188 -57.25 98.046875 -57.1875 C 99.609375 -57.125 101.257812 -57.09375 103 -57.09375 C 131.863281 -57.09375 149.898438 -64.554688 157.109375 -79.484375 C 158.597656 -82.722656 159.34375 -85.710938 159.34375 -88.453125 C 159.34375 -93.921875 156.796875 -98.707031 151.703125 -102.8125 C 147.097656 -106.539062 141.03125 -109.054688 133.5 -110.359375 C 125.976562 -111.671875 118.484375 -112.328125 111.015625 -112.328125 C 94.472656 -112.328125 76.875 -107.785156 58.21875 -98.703125 C 35.570312 -87.628906 24.25 -74.628906 24.25 -59.703125 C 24.25 -54.859375 27.425781 -52.4375 33.78125 -52.4375 C 39.625 -52.4375 46.210938 -54.796875 53.546875 -59.515625 C 59.890625 -63.753906 64.242188 -68.046875 66.609375 -72.390625 C 67.484375 -74.015625 68.296875 -74.828125 69.046875 -74.828125 C 69.910156 -74.828125 70.15625 -74.328125 69.78125 -73.328125 C 67.414062 -66.359375 62.128906 -60.390625 53.921875 -55.421875 C 45.960938 -50.566406 37.753906 -48.140625 29.296875 -48.140625 C 19.222656 -48.140625 14.554688 -51.375 15.296875 -57.84375 C 17.160156 -74.132812 27.175781 -88.003906 45.34375 -99.453125 C 63.375 -110.773438 85.144531 -116.4375 110.65625 -116.4375 C 120.351562 -116.4375 129.773438 -115.5625 138.921875 -113.8125 C 148.066406 -112.070312 155.5 -108.84375 161.21875 -104.125 C 167.1875 -99.144531 170.171875 -93.296875 170.171875 -86.578125 C 170.171875 -83.710938 169.488281 -80.601562 168.125 -77.25 C 166.007812 -72.394531 162.773438 -68.253906 158.421875 -64.828125 C 154.066406 -61.410156 149.023438 -58.644531 143.296875 -56.53125 C 137.578125 -54.414062 131.546875 -52.859375 125.203125 -51.859375 C 118.859375 -50.867188 112.703125 -50.375 106.734375 -50.375 C 103.492188 -50.375 100.410156 -50.5 97.484375 -50.75 C 94.566406 -51 91.863281 -51.375 89.375 -51.875 C 90.125 -49.507812 91.429688 -45.21875 93.296875 -39 C 95.160156 -32.78125 97.523438 -24.691406 100.390625 -14.734375 C 101.253906 -12.003906 102.460938 -9.019531 104.015625 -5.78125 C 105.578125 -2.550781 107.351562 0.492188 109.34375 3.359375 C 111.332031 6.222656 113.476562 8.585938 115.78125 10.453125 C 118.082031 12.316406 120.414062 13.25 122.78125 13.25 C 128 13.25 132.351562 7.960938 135.84375 -2.609375 C 136.457031 -5.097656 137.140625 -6.34375 137.890625 -6.34375 C 138.515625 -6.34375 139.078125 -5.160156 139.578125 -2.796875 C 139.703125 -2.421875 139.765625 -1.925781 139.765625 -1.3125 C 139.765625 1.925781 138.019531 5.910156 134.53125 10.640625 C 129.925781 17.484375 124.765625 20.90625 119.046875 20.90625 Z M 119.046875 20.90625 "/></g></g></g><g fill="#333333" fill-opacity="1"><g transform="translate(807.75417, 186.090063)"><g><path d="M 8.03125 0.375 C 4.914062 0.375 2.488281 -1.082031 0.75 -4 C -0.988281 -6.925781 -1.859375 -9.757812 -1.859375 -12.5 C -1.859375 -19.96875 3.550781 -30.414062 14.375 -43.84375 C 25.3125 -57.40625 34.140625 -64.1875 40.859375 -64.1875 C 47.203125 -64.1875 50.375 -60.828125 50.375 -54.109375 C 50.375 -53.117188 50.28125 -52.0625 50.09375 -50.9375 C 49.914062 -49.820312 49.703125 -48.640625 49.453125 -47.390625 C 49.703125 -47.015625 50.320312 -46.828125 51.3125 -46.828125 C 54.664062 -46.828125 58.644531 -48.007812 63.25 -50.375 C 63.125 -48.257812 58.210938 -45.210938 48.515625 -41.234375 C 49.878906 -37.128906 45.773438 -29.289062 36.203125 -17.71875 C 26.367188 -5.65625 17.972656 0.375 11.015625 0.375 Z M 11.375 -5.21875 C 16.726562 -5.21875 23.570312 -10.132812 31.90625 -19.96875 C 39.988281 -29.539062 44.03125 -36.441406 44.03125 -40.671875 C 42.039062 -41.796875 39.554688 -44.660156 36.578125 -49.265625 C 32.347656 -49.265625 26.25 -44.160156 18.28125 -33.953125 C 10.445312 -24.003906 6.65625 -16.359375 6.90625 -11.015625 C 7.03125 -7.148438 8.519531 -5.21875 11.375 -5.21875 Z M 11.375 -5.21875 "/></g></g></g><g fill="#333333" fill-opacity="1"><g transform="translate(860.184815, 186.090063)"><g><path d="M 47.578125 0.375 C 44.222656 0.375 41.859375 -0.585938 40.484375 -2.515625 C 39.117188 -4.441406 38.4375 -6.835938 38.4375 -9.703125 C 38.4375 -16.921875 40.925781 -24.632812 45.90625 -32.84375 L 57.84375 -52.25 C 49.382812 -46.03125 40.988281 -38.253906 32.65625 -28.921875 C 30.414062 -26.429688 27.894531 -23.503906 25.09375 -20.140625 C 22.300781 -16.785156 19.222656 -12.929688 15.859375 -8.578125 C 11.378906 -2.734375 8.707031 0.1875 7.84375 0.1875 C 6.09375 0.1875 4.65625 -0.585938 3.53125 -2.140625 C 2.414062 -3.703125 1.859375 -5.101562 1.859375 -6.34375 C 1.859375 -7.34375 2.171875 -9.175781 2.796875 -11.84375 C 3.421875 -14.519531 4.164062 -16.851562 5.03125 -18.84375 C 5.90625 -20.957031 6.804688 -23.039062 7.734375 -25.09375 C 8.671875 -27.144531 9.578125 -29.164062 10.453125 -31.15625 L -0.75 -19.40625 C -1 -19.15625 -1.742188 -18.40625 -2.984375 -17.15625 C -4.222656 -15.914062 -5.21875 -15.296875 -5.96875 -15.296875 C -6.59375 -15.296875 -6.90625 -15.734375 -6.90625 -16.609375 C -6.90625 -16.859375 -6.8125 -17.195312 -6.625 -17.625 C -6.4375 -18.0625 -6.03125 -18.59375 -5.40625 -19.21875 C -3.539062 -21.082031 -1.613281 -23.070312 0.375 -25.1875 C 2.363281 -27.300781 4.414062 -29.726562 6.53125 -32.46875 C 7.644531 -33.832031 9.320312 -35.914062 11.5625 -38.71875 C 13.800781 -41.519531 16.257812 -44.535156 18.9375 -47.765625 C 21.613281 -51.003906 24.132812 -53.988281 26.5 -56.71875 C 27.113281 -57.59375 27.796875 -58.1875 28.546875 -58.5 C 29.296875 -58.8125 29.796875 -58.96875 30.046875 -58.96875 C 33.398438 -58.96875 35.078125 -57.660156 35.078125 -55.046875 C 35.078125 -54.296875 34.890625 -53.550781 34.515625 -52.8125 C 23.316406 -37.382812 16.601562 -25.628906 14.375 -17.546875 C 28.800781 -31.972656 40.398438 -42.820312 49.171875 -50.09375 C 57.941406 -57.375 64.191406 -61.015625 67.921875 -61.015625 C 69.910156 -61.015625 71.429688 -60.703125 72.484375 -60.078125 C 73.546875 -59.460938 74.078125 -58.28125 74.078125 -56.53125 C 74.078125 -55.914062 74.015625 -55.421875 73.890625 -55.046875 C 73.515625 -54.171875 70.960938 -50.6875 66.234375 -44.59375 C 63.378906 -41.113281 60.863281 -37.941406 58.6875 -35.078125 C 56.507812 -32.210938 54.734375 -29.722656 53.359375 -27.609375 C 51.117188 -24.128906 49.441406 -20.863281 48.328125 -17.8125 C 47.210938 -14.769531 46.65625 -12.191406 46.65625 -10.078125 C 46.65625 -9.203125 46.773438 -8.140625 47.015625 -6.890625 C 47.265625 -5.648438 48.015625 -5.03125 49.265625 -5.03125 C 52.117188 -5.03125 56.597656 -7.519531 62.703125 -12.5 C 65.554688 -14.988281 68.226562 -17.507812 70.71875 -20.0625 C 73.207031 -22.613281 75.570312 -25.128906 77.8125 -27.609375 C 78.3125 -28.109375 79.117188 -29.070312 80.234375 -30.5 C 81.359375 -31.9375 82.039062 -32.65625 82.28125 -32.65625 C 82.78125 -32.65625 83.03125 -32.15625 83.03125 -31.15625 C 83.03125 -30.664062 82.75 -29.828125 82.1875 -28.640625 C 81.632812 -27.460938 81.046875 -26.5625 80.421875 -25.9375 C 79.054688 -24.320312 77.035156 -22.082031 74.359375 -19.21875 C 71.679688 -16.351562 68.691406 -13.425781 65.390625 -10.4375 C 62.097656 -7.457031 58.894531 -4.910156 55.78125 -2.796875 C 52.675781 -0.679688 49.941406 0.375 47.578125 0.375 Z M 47.578125 0.375 "/></g></g></g><g fill="#333333" fill-opacity="1"><g transform="translate(935.378902, 186.090063)"><g><path d="M 12.5 0.9375 C 9.519531 0.9375 6.535156 -0.117188 3.546875 -2.234375 C 0.554688 -4.347656 -1.125 -6.835938 -1.5 -9.703125 C -2.738281 -19.285156 3.296875 -30.664062 16.609375 -43.84375 C 29.796875 -57.03125 41.675781 -63.625 52.25 -63.625 C 55.101562 -63.625 57.34375 -62.941406 58.96875 -61.578125 C 59.832031 -60.703125 60.484375 -59.519531 60.921875 -58.03125 C 61.359375 -56.539062 61.703125 -55.796875 61.953125 -55.796875 C 62.453125 -55.796875 62.882812 -55.882812 63.25 -56.0625 C 63.625 -56.25 64.0625 -56.34375 64.5625 -56.34375 C 66.050781 -56.34375 67.351562 -55.785156 68.46875 -54.671875 C 69.59375 -53.554688 70.21875 -52.5625 70.34375 -51.6875 C 70.46875 -51.4375 66.488281 -45.28125 58.40625 -33.21875 C 50.320312 -21.394531 46.648438 -13.367188 47.390625 -9.140625 C 48.015625 -6.273438 49.382812 -4.84375 51.5 -4.84375 C 57.96875 -4.84375 69.785156 -15.546875 86.953125 -36.953125 C 87.328125 -37.441406 87.703125 -37.6875 88.078125 -37.6875 C 88.691406 -37.6875 89 -37.253906 89 -36.390625 C 89 -35.390625 88.441406 -34.144531 87.328125 -32.65625 C 71.523438 -11.382812 59.394531 -0.75 50.9375 -0.75 C 49.820312 -0.75 48.765625 -0.9375 47.765625 -1.3125 C 42.296875 -3.425781 39.5625 -7.53125 39.5625 -13.625 C 39.5625 -15.738281 39.804688 -17.851562 40.296875 -19.96875 L 28.734375 -8.765625 C 25.253906 -5.285156 22.113281 -2.796875 19.3125 -1.296875 C 16.507812 0.191406 14.238281 0.9375 12.5 0.9375 Z M 10.828125 -3.171875 C 18.035156 -3.171875 27.859375 -11.070312 40.296875 -26.875 L 60.078125 -54.109375 C 59.085938 -55.847656 57.472656 -56.71875 55.234375 -56.71875 C 47.640625 -56.71875 37.375 -50.625 24.4375 -38.4375 C 11.007812 -26 4.976562 -15.738281 6.34375 -7.65625 C 6.96875 -4.664062 8.460938 -3.171875 10.828125 -3.171875 Z M 10.828125 -3.171875 "/></g></g></g><g fill="#333333" fill-opacity="1"><g transform="translate(1012.252295, 186.090063)"><g><path d="M 47.578125 0.375 C 44.222656 0.375 41.859375 -0.585938 40.484375 -2.515625 C 39.117188 -4.441406 38.4375 -6.835938 38.4375 -9.703125 C 38.4375 -16.921875 40.925781 -24.632812 45.90625 -32.84375 L 57.84375 -52.25 C 49.382812 -46.03125 40.988281 -38.253906 32.65625 -28.921875 C 30.414062 -26.429688 27.894531 -23.503906 25.09375 -20.140625 C 22.300781 -16.785156 19.222656 -12.929688 15.859375 -8.578125 C 11.378906 -2.734375 8.707031 0.1875 7.84375 0.1875 C 6.09375 0.1875 4.65625 -0.585938 3.53125 -2.140625 C 2.414062 -3.703125 1.859375 -5.101562 1.859375 -6.34375 C 1.859375 -7.34375 2.171875 -9.175781 2.796875 -11.84375 C 3.421875 -14.519531 4.164062 -16.851562 5.03125 -18.84375 C 5.90625 -20.957031 6.804688 -23.039062 7.734375 -25.09375 C 8.671875 -27.144531 9.578125 -29.164062 10.453125 -31.15625 L -0.75 -19.40625 C -1 -19.15625 -1.742188 -18.40625 -2.984375 -17.15625 C -4.222656 -15.914062 -5.21875 -15.296875 -5.96875 -15.296875 C -6.59375 -15.296875 -6.90625 -15.734375 -6.90625 -16.609375 C -6.90625 -16.859375 -6.8125 -17.195312 -6.625 -17.625 C -6.4375 -18.0625 -6.03125 -18.59375 -5.40625 -19.21875 C -3.539062 -21.082031 -1.613281 -23.070312 0.375 -25.1875 C 2.363281 -27.300781 4.414062 -29.726562 6.53125 -32.46875 C 7.644531 -33.832031 9.320312 -35.914062 11.5625 -38.71875 C 13.800781 -41.519531 16.257812 -44.535156 18.9375 -47.765625 C 21.613281 -51.003906 24.132812 -53.988281 26.5 -56.71875 C 27.113281 -57.59375 27.796875 -58.1875 28.546875 -58.5 C 29.296875 -58.8125 29.796875 -58.96875 30.046875 -58.96875 C 33.398438 -58.96875 35.078125 -57.660156 35.078125 -55.046875 C 35.078125 -54.296875 34.890625 -53.550781 34.515625 -52.8125 C 23.316406 -37.382812 16.601562 -25.628906 14.375 -17.546875 C 28.800781 -31.972656 40.398438 -42.820312 49.171875 -50.09375 C 57.941406 -57.375 64.191406 -61.015625 67.921875 -61.015625 C 69.910156 -61.015625 71.429688 -60.703125 72.484375 -60.078125 C 73.546875 -59.460938 74.078125 -58.28125 74.078125 -56.53125 C 74.078125 -55.914062 74.015625 -55.421875 73.890625 -55.046875 C 73.515625 -54.171875 70.960938 -50.6875 66.234375 -44.59375 C 63.378906 -41.113281 60.863281 -37.941406 58.6875 -35.078125 C 56.507812 -32.210938 54.734375 -29.722656 53.359375 -27.609375 C 51.117188 -24.128906 49.441406 -20.863281 48.328125 -17.8125 C 47.210938 -14.769531 46.65625 -12.191406 46.65625 -10.078125 C 46.65625 -9.203125 46.773438 -8.140625 47.015625 -6.890625 C 47.265625 -5.648438 48.015625 -5.03125 49.265625 -5.03125 C 52.117188 -5.03125 56.597656 -7.519531 62.703125 -12.5 C 65.554688 -14.988281 68.226562 -17.507812 70.71875 -20.0625 C 73.207031 -22.613281 75.570312 -25.128906 77.8125 -27.609375 C 78.3125 -28.109375 79.117188 -29.070312 80.234375 -30.5 C 81.359375 -31.9375 82.039062 -32.65625 82.28125 -32.65625 C 82.78125 -32.65625 83.03125 -32.15625 83.03125 -31.15625 C 83.03125 -30.664062 82.75 -29.828125 82.1875 -28.640625 C 81.632812 -27.460938 81.046875 -26.5625 80.421875 -25.9375 C 79.054688 -24.320312 77.035156 -22.082031 74.359375 -19.21875 C 71.679688 -16.351562 68.691406 -13.425781 65.390625 -10.4375 C 62.097656 -7.457031 58.894531 -4.910156 55.78125 -2.796875 C 52.675781 -0.679688 49.941406 0.375 47.578125 0.375 Z M 47.578125 0.375 "/></g></g></g><g fill="#333333" fill-opacity="1"><g transform="translate(347.118742, 319.74991)"><g><path d="M 21 -46.34375 L 21 0 L 16.59375 0 L 16.59375 -45.015625 L 5.453125 -42.484375 L 5.390625 -43.8125 L 16.59375 -46.34375 Z M 21 -46.34375 "/></g></g></g><g fill="#333333" fill-opacity="1"><g transform="translate(381.27687, 319.74991)"><g><path d="M 24.59375 -47.109375 C 20.75 -47.109375 17.472656 -45.007812 14.765625 -40.8125 C 12.054688 -36.613281 10.703125 -30.800781 10.703125 -23.375 C 10.703125 -15.957031 12.007812 -10.332031 14.625 -6.5 C 17.238281 -2.675781 20.484375 -0.765625 24.359375 -0.765625 C 28.234375 -0.765625 31.523438 -2.851562 34.234375 -7.03125 C 36.941406 -11.207031 38.296875 -16.96875 38.296875 -24.3125 C 38.296875 -31.664062 36.972656 -37.300781 34.328125 -41.21875 C 31.691406 -45.144531 28.445312 -47.109375 24.59375 -47.109375 Z M 24.359375 0.28125 C 19.085938 0.28125 14.703125 -1.710938 11.203125 -5.703125 C 7.703125 -9.691406 5.953125 -15.582031 5.953125 -23.375 C 5.953125 -31.164062 7.75 -37.242188 11.34375 -41.609375 C 14.9375 -45.972656 19.359375 -48.15625 24.609375 -48.15625 C 29.859375 -48.15625 34.242188 -46.113281 37.765625 -42.03125 C 41.285156 -37.945312 43.046875 -32.054688 43.046875 -24.359375 C 43.046875 -16.660156 41.25 -10.628906 37.65625 -6.265625 C 34.0625 -1.898438 29.628906 0.28125 24.359375 0.28125 Z M 24.359375 0.28125 "/></g></g></g><g fill="#333333" fill-opacity="1"><g transform="translate(430.274197, 319.74991)"><g/></g></g><g fill="#333333" fill-opacity="1"><g transform="translate(451.203047, 319.74991)"><g><path d="M 12.875 -49 C 12.875 -48.957031 12.898438 -48.609375 12.953125 -47.953125 L 10.21875 -47.59375 L 10.21875 0 C 10.363281 5.601562 7.003906 11.390625 0.140625 17.359375 L -0.703125 16.734375 C 3.453125 11.085938 5.503906 5.507812 5.453125 0 L 5.453125 -46.765625 C 5.359375 -47.179688 5.082031 -47.4375 4.625 -47.53125 L 0.28125 -47.875 L 0.203125 -48.9375 Z M 12.875 -49 "/></g></g></g><g fill="#333333" fill-opacity="1"><g transform="translate(467.652143, 319.74991)"><g><path d="M 17.5 -49 C 17.5 -48.957031 17.519531 -48.609375 17.5625 -47.953125 L 12.8125 -47.53125 L 12.8125 -21.0625 C 12.8125 -12.945312 14.234375 -7.5625 17.078125 -4.90625 C 18.429688 -3.59375 19.804688 -2.691406 21.203125 -2.203125 C 22.609375 -1.710938 24.253906 -1.46875 26.140625 -1.46875 C 28.035156 -1.46875 29.75 -1.722656 31.28125 -2.234375 C 32.820312 -2.753906 34.316406 -3.691406 35.765625 -5.046875 C 38.847656 -7.835938 40.390625 -13.175781 40.390625 -21.0625 L 40.390625 -46.40625 C 40.296875 -47.007812 40.015625 -47.335938 39.546875 -47.390625 L 34.515625 -47.875 C 34.460938 -48.15625 34.4375 -48.507812 34.4375 -48.9375 L 47.734375 -49 C 47.734375 -48.957031 47.757812 -48.609375 47.8125 -47.953125 L 42 -47.3125 L 42 -21 C 42 -6.8125 36.703125 0.28125 26.109375 0.28125 C 23.546875 0.28125 21.296875 0.015625 19.359375 -0.515625 C 17.421875 -1.054688 15.539062 -2.050781 13.71875 -3.5 C 9.9375 -6.4375 8.046875 -12.269531 8.046875 -21 L 8.046875 -46.625 C 7.859375 -47.175781 7.578125 -47.476562 7.203125 -47.53125 L 3.5625 -47.875 C 3.519531 -48.15625 3.5 -48.507812 3.5 -48.9375 Z M 17.5 -49 "/></g></g></g><g fill="#333333" fill-opacity="1"><g transform="translate(518.609362, 319.74991)"><g><path d="M 3.5 0.0625 L 3.5625 -0.90625 L 7.203125 -1.40625 C 7.671875 -1.445312 7.953125 -1.75 8.046875 -2.3125 L 8.125 -2.3125 L 8.125 -46.546875 L 8.046875 -46.546875 C 7.953125 -47.148438 7.671875 -47.476562 7.203125 -47.53125 L 3.5625 -47.875 L 3.5 -48.9375 L 17.5625 -49 C 17.5625 -48.957031 17.585938 -48.609375 17.640625 -47.953125 L 12.875 -47.53125 L 12.875 -1.328125 L 17.640625 -1.046875 C 17.640625 -1.003906 17.613281 -0.65625 17.5625 0 Z M 3.5 0.0625 "/></g></g></g><g fill="#333333" fill-opacity="1"><g transform="translate(539.748201, 319.74991)"><g><path d="M 3.15625 -47.953125 L 3.21875 -49 L 12.8125 -49 L 40.046875 -1.953125 L 39.6875 -46.546875 C 39.5 -47.015625 39.242188 -47.269531 38.921875 -47.3125 L 32.484375 -47.875 C 32.429688 -48.15625 32.40625 -48.507812 32.40625 -48.9375 L 45.703125 -49 C 45.703125 -48.957031 45.726562 -48.609375 45.78125 -47.953125 L 41.296875 -47.453125 L 41.296875 0 L 36.1875 0 L 8.953125 -47.046875 L 9.3125 -1.46875 L 17.296875 -1.046875 C 17.296875 -1.003906 17.269531 -0.65625 17.21875 0 L 3.15625 0.0625 L 3.21875 -0.90625 L 6.859375 -1.40625 C 7.328125 -1.445312 7.609375 -1.75 7.703125 -2.3125 L 7.703125 -46.625 C 7.609375 -47.175781 7.328125 -47.476562 6.859375 -47.53125 Z M 3.15625 -47.953125 "/></g></g></g><g fill="#333333" fill-opacity="1"><g transform="translate(588.675535, 319.74991)"><g/></g></g><g fill="#333333" fill-opacity="1"><g transform="translate(609.604397, 319.74991)"><g><path d="M 21 -46.625 C 24.539062 -46.625 27.609375 -45.640625 30.203125 -43.671875 C 32.796875 -41.710938 34.09375 -38.613281 34.09375 -34.375 C 34.09375 -28.675781 31.6875 -22.769531 26.875 -16.65625 C 24.5 -13.625 22.285156 -11.007812 20.234375 -8.8125 C 18.179688 -6.625 15.566406 -4.035156 12.390625 -1.046875 L 33.953125 -1.046875 L 35.34375 -12.59375 L 36.6875 -12.25 L 35.625 0 L 7.0625 0 L 6.296875 -1.046875 C 14.140625 -8.648438 19.953125 -15.050781 23.734375 -20.25 C 27.515625 -25.457031 29.40625 -30.1875 29.40625 -34.4375 C 29.40625 -36.675781 28.890625 -38.941406 27.859375 -41.234375 C 27.253906 -42.492188 26.304688 -43.519531 25.015625 -44.3125 C 23.734375 -45.101562 22.253906 -45.5 20.578125 -45.5 C 17.546875 -45.5 14.023438 -44.660156 10.015625 -42.984375 L 8.046875 -42.203125 L 7.703125 -42.90625 C 9.609375 -43.9375 11.796875 -44.8125 14.265625 -45.53125 C 16.742188 -46.257812 18.988281 -46.625 21 -46.625 Z M 21 -46.625 "/></g></g></g><g fill="#333333" fill-opacity="1"><g transform="translate(649.642213, 319.74991)"><g><path d="M 24.59375 -47.109375 C 20.75 -47.109375 17.472656 -45.007812 14.765625 -40.8125 C 12.054688 -36.613281 10.703125 -30.800781 10.703125 -23.375 C 10.703125 -15.957031 12.007812 -10.332031 14.625 -6.5 C 17.238281 -2.675781 20.484375 -0.765625 24.359375 -0.765625 C 28.234375 -0.765625 31.523438 -2.851562 34.234375 -7.03125 C 36.941406 -11.207031 38.296875 -16.96875 38.296875 -24.3125 C 38.296875 -31.664062 36.972656 -37.300781 34.328125 -41.21875 C 31.691406 -45.144531 28.445312 -47.109375 24.59375 -47.109375 Z M 24.359375 0.28125 C 19.085938 0.28125 14.703125 -1.710938 11.203125 -5.703125 C 7.703125 -9.691406 5.953125 -15.582031 5.953125 -23.375 C 5.953125 -31.164062 7.75 -37.242188 11.34375 -41.609375 C 14.9375 -45.972656 19.359375 -48.15625 24.609375 -48.15625 C 29.859375 -48.15625 34.242188 -46.113281 37.765625 -42.03125 C 41.285156 -37.945312 43.046875 -32.054688 43.046875 -24.359375 C 43.046875 -16.660156 41.25 -10.628906 37.65625 -6.265625 C 34.0625 -1.898438 29.628906 0.28125 24.359375 0.28125 Z M 24.359375 0.28125 "/></g></g></g><g fill="#333333" fill-opacity="1"><g transform="translate(698.63954, 319.74991)"><g><path d="M 21 -46.625 C 24.539062 -46.625 27.609375 -45.640625 30.203125 -43.671875 C 32.796875 -41.710938 34.09375 -38.613281 34.09375 -34.375 C 34.09375 -28.675781 31.6875 -22.769531 26.875 -16.65625 C 24.5 -13.625 22.285156 -11.007812 20.234375 -8.8125 C 18.179688 -6.625 15.566406 -4.035156 12.390625 -1.046875 L 33.953125 -1.046875 L 35.34375 -12.59375 L 36.6875 -12.25 L 35.625 0 L 7.0625 0 L 6.296875 -1.046875 C 14.140625 -8.648438 19.953125 -15.050781 23.734375 -20.25 C 27.515625 -25.457031 29.40625 -30.1875 29.40625 -34.4375 C 29.40625 -36.675781 28.890625 -38.941406 27.859375 -41.234375 C 27.253906 -42.492188 26.304688 -43.519531 25.015625 -44.3125 C 23.734375 -45.101562 22.253906 -45.5 20.578125 -45.5 C 17.546875 -45.5 14.023438 -44.660156 10.015625 -42.984375 L 8.046875 -42.203125 L 7.703125 -42.90625 C 9.609375 -43.9375 11.796875 -44.8125 14.265625 -45.53125 C 16.742188 -46.257812 18.988281 -46.625 21 -46.625 Z M 21 -46.625 "/></g></g></g><g fill="#333333" fill-opacity="1"><g transform="translate(738.677356, 319.74991)"><g><path d="M 13.296875 -23.375 L 13.296875 -24.4375 C 15.867188 -24.4375 17.804688 -24.410156 19.109375 -24.359375 C 20.597656 -24.640625 22.347656 -25.429688 24.359375 -26.734375 C 25.617188 -27.578125 26.644531 -28.789062 27.4375 -30.375 C 28.226562 -31.96875 28.625 -33.929688 28.625 -36.265625 C 28.625 -38.597656 28.003906 -40.71875 26.765625 -42.625 C 25.535156 -44.539062 23.546875 -45.5 20.796875 -45.5 C 18.921875 -45.5 16.976562 -45.238281 14.96875 -44.71875 C 12.96875 -44.207031 11.429688 -43.695312 10.359375 -43.1875 L 8.75 -42.421875 L 8.265625 -43.125 C 9.710938 -43.957031 11.707031 -44.75 14.25 -45.5 C 16.789062 -46.25 19.085938 -46.625 21.140625 -46.625 C 24.734375 -46.625 27.671875 -45.757812 29.953125 -44.03125 C 32.242188 -42.300781 33.390625 -39.804688 33.390625 -36.546875 C 33.390625 -31.640625 30.960938 -27.972656 26.109375 -25.546875 C 24.992188 -24.984375 23.828125 -24.519531 22.609375 -24.15625 C 29.984375 -23.257812 33.671875 -19.894531 33.671875 -14.0625 C 33.671875 -9.21875 32.015625 -5.628906 28.703125 -3.296875 C 25.390625 -0.960938 20.769531 0.203125 14.84375 0.203125 C 11.757812 0.203125 8.84375 -0.164062 6.09375 -0.90625 L 6.578125 -1.75 C 8.441406 -1.144531 11.054688 -0.84375 14.421875 -0.84375 C 24.078125 -0.84375 28.90625 -5.179688 28.90625 -13.859375 C 28.90625 -17.078125 28.039062 -19.316406 26.3125 -20.578125 C 25.382812 -21.234375 24.507812 -21.769531 23.6875 -22.1875 C 22.875 -22.601562 21.742188 -22.882812 20.296875 -23.03125 C 17.867188 -23.257812 15.535156 -23.375 13.296875 -23.375 Z M 13.296875 -23.375 "/></g></g></g></svg>